<?xml version="1.0" encoding="UTF-8" standalone="no"?>
<!-- Created with Inkscape (http://www.inkscape.org/) -->

<svg
   width="156"
   height="56"
   viewBox="0 0 41.275002 14.816667"
   version="1.1"
   id="svg5"
   inkscape:version="1.1.2 (b8e25be833, 2022-02-05)"
   sodipodi:docname="logo.svg"
   xmlns:inkscape="http://www.inkscape.org/namespaces/inkscape"
   xmlns:sodipodi="http://sodipodi.sourceforge.net/DTD/sodipodi-0.dtd"
   xmlns="http://www.w3.org/2000/svg"
   xmlns:svg="http://www.w3.org/2000/svg">
  <sodipodi:namedview
     id="namedview7"
     pagecolor="#ffffff"
     bordercolor="#666666"
     borderopacity="1.0"
     inkscape:pageshadow="2"
     inkscape:pageopacity="0.0"
     inkscape:pagecheckerboard="0"
     inkscape:document-units="px"
     showgrid="false"
     width="157mm"
     units="px"
     inkscape:zoom="4"
     inkscape:cx="72.625"
     inkscape:cy="21.5"
     inkscape:window-width="1366"
     inkscape:window-height="705"
     inkscape:window-x="-8"
     inkscape:window-y="-8"
     inkscape:window-maximized="1"
     inkscape:current-layer="layer1" />
  <defs
     id="defs2">
    <clipPath
       clipPathUnits="userSpaceOnUse"
       id="clipPath838">
      <path
         d="M 0,792 H 612 V 0 H 0 Z"
         id="path836" />
    </clipPath>
  </defs>
  <g
     inkscape:label="Layer 1"
     inkscape:groupmode="layer"
     id="layer1">
    <g
       id="g840"
       transform="matrix(0.13576033,0,0,-0.13576033,1.1034449,8.3304867)"
       style="fill:#3a86ff;fill-opacity:1">
      <path
         d="m 0,0 9.137,8.961 c 2.364,-3.493 6.773,-5.609 11.536,-5.609 3.211,0 6.35,1.164 6.35,3.492 0,2.928 -5.821,5.504 -11.395,7.973 -7.196,3.105 -13.37,7.831 -13.37,16.405 0,9.842 9.348,16.863 20.143,16.863 8.679,0 15.453,-4.093 17.675,-9.702 l -8.714,-8.397 c -1.693,2.999 -6.067,4.305 -8.784,4.305 -3.104,0 -5.327,-1.588 -5.327,-3.528 0,-2.611 4.021,-3.457 10.16,-6.033 8.891,-3.739 14.781,-9.172 14.781,-17.569 0,-10.83 -10.088,-17.568 -21.484,-17.568 C 11.359,-10.407 2.857,-6.279 0,0"
         style="fill:#3a86ff;fill-opacity:1;fill-rule:nonzero;stroke:none"
         id="path842" />
    </g>
    <g
       id="g844"
       transform="matrix(0.13576033,0,0,-0.13576033,13.056859,3.8332903)"
       style="fill:#3a86ff;fill-opacity:1">
      <path
         d="M 0,0 H -13.617 V -42.757 H -28.751 V 0 H -42.404 V 14.111 H 0 Z"
         style="fill:#3a86ff;fill-opacity:1;fill-rule:nonzero;stroke:none"
         id="path846" />
    </g>
    <g
       id="g848"
       transform="matrix(0.13576033,0,0,-0.13576033,26.235548,5.7824554)"
       style="fill:#3a86ff;fill-opacity:1">
      <path
         d="m 0,0 c 0,8.925 -6.209,14.357 -16.404,14.357 h -3.457 v -28.54 h 3.597 C -6.174,-14.183 0,-8.82 0,0 m 15.135,-0.035 c 0,-17.64 -11.819,-28.364 -31.151,-28.364 h -18.556 v 56.833 l 18.556,0.035 C 3.316,28.54 15.135,17.744 15.135,-0.035"
         style="fill:#3a86ff;fill-opacity:1;fill-rule:nonzero;stroke:none"
         id="path850" />
    </g>
    <path
       d="m 29.295137,1.9175082 h 2.04971 V 9.637926 h -2.04971 z"
       style="fill:#3a86ff;fill-opacity:1;fill-rule:nonzero;stroke:none;stroke-width:0.13576"
       id="path852" />
    <g
       id="g854"
       transform="matrix(0.13576033,0,0,-0.13576033,13.860817,6.8314212)"
       style="fill:#3a86ff;fill-opacity:1">
      <path
         d="M 0,0 V 36.195 H 15.205 V 0.035 c 0,-4.726 4.057,-7.867 8.36,-7.867 4.269,0 8.432,3.211 8.432,7.867 v 36.16 H 47.202 V 0 c 0,-13.053 -10.583,-22.261 -23.601,-22.261 C 10.583,-22.261 0,-13.053 0,0"
         style="fill:#3a86ff;fill-opacity:1;fill-rule:nonzero;stroke:none"
         id="path856" />
    </g>
    <g
       id="g858"
       transform="matrix(0.13576033,0,0,-0.13576033,38.753615,5.7729115)"
       style="fill:#3a86ff;fill-opacity:1">
      <path
         d="m 0,0 c 0,8.784 -6.914,15.558 -15.945,15.558 -9.032,0 -15.946,-6.774 -15.946,-15.558 0,-8.749 6.914,-15.487 15.946,-15.487 C -6.914,-15.487 0,-8.749 0,0 m -47.166,-0.105 c 0,17.074 13.547,30.021 31.221,30.021 17.674,0 31.22,-12.947 31.22,-30.021 0,-16.934 -13.546,-29.811 -31.255,-29.811 -17.674,0 -31.186,12.877 -31.186,29.811"
         style="fill:#3a86ff;fill-opacity:1;fill-rule:nonzero;stroke:none"
         id="path860" />
    </g>
    <g
       id="g859"
       transform="translate(2.2902785)">
      <g
         id="g862"
         transform="matrix(0.13576033,0,0,-0.13576033,21.018726,12.391568)">
        <path
           d="M 0,0 1.475,3.454 2.938,0 Z m -1.361,-2.938 h 5.66 C 4.671,-3.773 5.042,-4.619 5.413,-5.454 H 9.001 L 1.443,11.434 -6.093,-5.454 h 3.577 c 0.382,0.846 0.763,1.681 1.135,2.526 z M 14.365,11.083 H 10.262 V -5.495 h 4.103 c 2.28,0 4.434,0.814 6.063,2.433 2.969,2.959 2.969,8.743 0,11.712 -1.629,1.629 -3.783,2.444 -6.063,2.444 z m 0.011,-13.248 h -0.783 v 9.949 h 0.762 c 1.361,0 2.64,-0.381 3.609,-1.361 0.979,-0.979 1.361,-2.257 1.361,-3.618 0,-1.372 -0.382,-2.65 -1.35,-3.619 -0.97,-0.97 -2.228,-1.351 -3.589,-1.351 z m 13.61,13.248 H 23.883 V -5.495 h 4.103 c 2.279,0 4.434,0.814 6.063,2.433 2.969,2.959 2.969,8.743 0,11.712 -1.629,1.629 -3.784,2.444 -6.063,2.444 z m 0.011,-13.248 h -0.784 v 9.949 h 0.764 c 1.36,0 2.638,-0.381 3.608,-1.361 0.979,-0.979 1.36,-2.257 1.36,-3.618 0,-1.372 -0.381,-2.65 -1.35,-3.619 -0.969,-0.97 -2.227,-1.351 -3.588,-1.351 z"
           style="fill:#ff6c00;fill-opacity:1;fill-rule:nonzero;stroke:none"
           id="path864" />
      </g>
      <g
         id="g866"
         transform="matrix(0.13576033,0,0,-0.13576033,26.111585,10.839269)">
        <path
           d="m 0,0 v -16.929 h 3.33 v 9.197 l 9.971,-9.506 V -0.31 h -3.33 v -9.186 z m 14.951,-0.31 v -16.619 h 3.33 6.64 v 3.33 h -6.64 v 3.32 h 4.981 v 3.32 h -4.981 v 3.33 h 6.64 v 3.319 z m 19.489,0.083 c -2.309,0 -4.289,-0.825 -5.928,-2.474 -1.639,-1.65 -2.464,-3.63 -2.464,-5.939 0,-2.309 0.825,-4.289 2.464,-5.928 1.639,-1.64 3.619,-2.464 5.928,-2.464 1.155,0 2.238,0.216 3.258,0.659 1.021,0.444 1.918,1.042 2.692,1.805 l -2.372,2.371 c -0.99,-0.99 -2.175,-1.485 -3.568,-1.485 -1.391,0 -2.577,0.495 -3.556,1.475 -0.98,0.979 -1.475,2.165 -1.475,3.557 0,1.381 0.495,2.567 1.475,3.557 0.979,0.989 2.165,1.485 3.556,1.485 1.372,0 2.558,-0.496 3.558,-1.485 l 2.371,2.371 c -0.774,0.753 -1.67,1.351 -2.691,1.794 -1.021,0.443 -2.103,0.66 -3.258,0.66 z M 45.571,-0.31 h -4.155 v -3.319 h 4.155 v -13.3 h 3.33 v 13.3 h 4.156 v 3.319 h -4.156 z m 11.591,-11.124 1.474,3.454 1.465,-3.454 z m -1.361,-2.938 h 5.66 c 0.371,-0.836 0.742,-1.681 1.113,-2.516 h 3.588 L 58.605,0 51.068,-16.888 h 3.578 c 0.381,0.846 0.763,1.68 1.134,2.526 z m 11.634,-2.557 h 3.33 v 6.495 l 4.248,-6.495 h 4.061 l -3.753,5.784 c 1.093,0.412 1.681,0.701 2.382,1.69 0.701,0.99 1.052,1.898 1.052,3.135 v 0.515 c 0,1.598 -0.464,2.671 -1.609,3.815 -1.144,1.144 -2.721,1.701 -4.32,1.701 h -5.402 z m 3.319,8.639 v 4.682 h 1.866 c 0.692,0 1.557,-0.176 2.042,-0.671 0.484,-0.494 0.659,-0.948 0.659,-1.629 0,-0.691 -0.175,-1.247 -0.659,-1.732 -0.485,-0.485 -0.836,-0.66 -1.526,-0.66 z"
           style="fill:#54565b;fill-opacity:1;fill-rule:nonzero;stroke:none"
           id="path868" />
      </g>
      <g
         id="g870"
         transform="matrix(0.13576033,0,0,-0.13576033,37.695633,13.363027)">
        <path
           d="m 0,0 c 0,0 -7.416,2.634 -3.121,9.781 0,0 4.231,-2.443 4.23,-7.783 0,0 3.288,-0.766 5.089,1.247 0,0 -0.568,-4.815 -5.347,-3.419 0,0 3.514,-0.254 4.64,2.309 0,0 -0.793,-1.406 -5.218,-0.635 0,0 0.41,4.548 -3.017,6.824 0,0 -2.788,-3.862 2.744,-8.324"
           style="fill:#f2581a;fill-opacity:1;fill-rule:nonzero;stroke:none"
           id="path872" />
      </g>
      <g
         id="g874"
         transform="matrix(0.13576033,0,0,-0.13576033,36.909309,13.159524)">
        <path
           d="M 0,0 C 0,0 5.524,0.077 8.273,-5.47 8.273,-5.47 5.251,-1.152 0,0"
           style="fill:#f2581a;fill-opacity:1;fill-rule:nonzero;stroke:none"
           id="path876" />
      </g>
      <g
         id="g878"
         transform="matrix(0.13576033,0,0,-0.13576033,16.651928,11.979643)">
        <path
           d="m 0,0 c -0.73,-0.714 -1.095,-1.626 -1.095,-2.737 0,-1.126 0.361,-2.047 1.083,-2.761 0.722,-0.713 1.615,-1.07 2.678,-1.07 1.046,0 1.927,0.353 2.641,1.058 0.714,0.706 1.071,1.631 1.071,2.773 0,1.174 -0.353,2.102 -1.059,2.784 C 4.613,0.729 3.729,1.071 2.666,1.071 1.618,1.071 0.73,0.714 0,0 M -1.237,8.02 V 1.285 c 0.364,0.651 0.947,1.162 1.749,1.535 0.801,0.373 1.59,0.559 2.367,0.559 1.746,0 3.174,-0.535 4.284,-1.606 1.111,-1.071 1.666,-2.574 1.666,-4.51 0,-1.888 -0.563,-3.38 -1.689,-4.474 -1.127,-1.095 -2.563,-1.642 -4.308,-1.642 -1.856,0 -3.213,0.698 -4.069,2.094 L -1.38,-8.615 H -3.688 V 8.02 Z"
           style="fill:#54565b;fill-opacity:1;fill-rule:nonzero;stroke:none"
           id="path880" />
      </g>
      <g
         id="g882"
         transform="matrix(0.13576033,0,0,-0.13576033,19.666228,11.556381)">
        <path
           d="m 0,0 -7.402,-17.183 h -2.713 l 2.428,5.617 L -12.375,0 h 2.855 l 2.023,-5.545 1.166,-3.332 1.262,3.284 L -2.737,0 Z"
           style="fill:#54565b;fill-opacity:1;fill-rule:nonzero;stroke:none"
           id="path884" />
      </g>
    </g>
  </g>
</svg>
